<?xml version="1.0" encoding="UTF-8" standalone="no"?>
<!DOCTYPE svg PUBLIC "-//W3C//DTD SVG 1.1//EN"
 "http://www.w3.org/Graphics/SVG/1.1/DTD/svg11.dtd">
<!-- Generated by graphviz version 2.47.0 (20210316.0004)
 -->
<!-- Title: dependencies Pages: 1 -->
<svg width="956pt" height="284pt"
 viewBox="0.00 0.00 956.00 284.00" xmlns="http://www.w3.org/2000/svg" xmlns:xlink="http://www.w3.org/1999/xlink">
<g id="graph0" class="graph" transform="scale(1 1) rotate(0) translate(4 280)">
<title>dependencies</title>
<polygon fill="white" stroke="transparent" points="-4,4 -4,-280 952,-280 952,4 -4,4"/>
<text text-anchor="start" x="453.01" y="-42.4" font-family="Times-12" font-weight="bold" font-size="14.00">Legend</text>
<polygon fill="#ffffb3" stroke="transparent" points="240,-10 240,-30 260,-30 260,-10 240,-10"/>
<text text-anchor="start" x="263.63" y="-15.4" font-family="Times-12" font-size="14.00"> &#160;Declarations</text>
<polygon fill="#8dd3c7" stroke="transparent" points="353,-10 353,-30 373,-30 373,-10 353,-10"/>
<text text-anchor="start" x="376.73" y="-15.4" font-family="Times-12" font-size="14.00"> &#160;Module</text>
<polygon fill="#80b1d3" stroke="transparent" points="439,-10 439,-30 459,-30 459,-10 439,-10"/>
<text text-anchor="start" x="462.78" y="-15.4" font-family="Times-12" font-size="14.00"> &#160;Bootstrap</text>
<polygon fill="#fdb462" stroke="transparent" points="536,-10 536,-30 556,-30 556,-10 536,-10"/>
<text text-anchor="start" x="559.67" y="-15.4" font-family="Times-12" font-size="14.00"> &#160;Providers</text>
<polygon fill="#fb8072" stroke="transparent" points="632,-10 632,-30 652,-30 652,-10 632,-10"/>
<text text-anchor="start" x="655.73" y="-15.4" font-family="Times-12" font-size="14.00"> &#160;Exports</text>
<g id="clust1" class="cluster">
<title>cluster_AppModule</title>
<polygon fill="none" stroke="black" stroke-dasharray="1,5" points="8,-70 8,-268 940,-268 940,-70 8,-70"/>
</g>
<g id="clust2" class="cluster">
<title>cluster_AppModule_declarations</title>
<polygon fill="none" stroke="black" points="16,-78 16,-130 932,-130 932,-78 16,-78"/>
</g>
<g id="clust11" class="cluster">
<title>cluster_AppModule_bootstrap</title>
<polygon fill="none" stroke="black" points="378,-208 378,-260 502,-260 502,-208 378,-208"/>
</g>
<!-- AppComponent -->
<g id="node1" class="node">
<title>AppComponent</title>
<polygon fill="#ffffb3" stroke="black" points="923.94,-122 818.06,-122 818.06,-86 923.94,-86 923.94,-122"/>
<text text-anchor="middle" x="871" y="-99.8" font-family="Times,serif" font-size="14.00">AppComponent</text>
</g>
<!-- AppModule -->
<g id="node7" class="node">
<title>AppModule</title>
<polygon fill="#8dd3c7" stroke="black" points="481.66,-187 478.66,-191 457.66,-191 454.66,-187 398.34,-187 398.34,-151 481.66,-151 481.66,-187"/>
<text text-anchor="middle" x="440" y="-164.8" font-family="Times,serif" font-size="14.00">AppModule</text>
</g>
<!-- AppComponent&#45;&gt;AppModule -->
<g id="edge1" class="edge">
<title>AppComponent&#45;&gt;AppModule</title>
<path fill="none" stroke="black" d="M871,-122.28C871,-143.32 871,-175 871,-175 871,-175 491.72,-175 491.72,-175"/>
<polygon fill="black" stroke="black" points="491.72,-171.5 481.72,-175 491.72,-178.5 491.72,-171.5"/>
</g>
<!-- CatalogoAppleComponent -->
<g id="node2" class="node">
<title>CatalogoAppleComponent</title>
<polygon fill="#ffffb3" stroke="black" points="800.09,-122 633.91,-122 633.91,-86 800.09,-86 800.09,-122"/>
<text text-anchor="middle" x="717" y="-99.8" font-family="Times,serif" font-size="14.00">CatalogoAppleComponent</text>
</g>
<!-- CatalogoAppleComponent&#45;&gt;AppModule -->
<g id="edge2" class="edge">
<title>CatalogoAppleComponent&#45;&gt;AppModule</title>
<path fill="none" stroke="black" d="M717,-122.02C717,-139.37 717,-163 717,-163 717,-163 491.77,-163 491.77,-163"/>
<polygon fill="black" stroke="black" points="491.77,-159.5 481.77,-163 491.77,-166.5 491.77,-159.5"/>
</g>
<!-- CatalogoSamsungComponent -->
<g id="node3" class="node">
<title>CatalogoSamsungComponent</title>
<polygon fill="#ffffb3" stroke="black" points="615.71,-122 432.29,-122 432.29,-86 615.71,-86 615.71,-122"/>
<text text-anchor="middle" x="524" y="-99.8" font-family="Times,serif" font-size="14.00">CatalogoSamsungComponent</text>
</g>
<!-- CatalogoSamsungComponent&#45;&gt;AppModule -->
<g id="edge3" class="edge">
<title>CatalogoSamsungComponent&#45;&gt;AppModule</title>
<path fill="none" stroke="black" d="M457.11,-122.11C457.11,-122.11 457.11,-140.99 457.11,-140.99"/>
<polygon fill="black" stroke="black" points="453.61,-140.99 457.11,-150.99 460.61,-140.99 453.61,-140.99"/>
</g>
<!-- HomeComponent -->
<g id="node4" class="node">
<title>HomeComponent</title>
<polygon fill="#ffffb3" stroke="black" points="414.55,-122 299.45,-122 299.45,-86 414.55,-86 414.55,-122"/>
<text text-anchor="middle" x="357" y="-99.8" font-family="Times,serif" font-size="14.00">HomeComponent</text>
</g>
<!-- HomeComponent&#45;&gt;AppModule -->
<g id="edge4" class="edge">
<title>HomeComponent&#45;&gt;AppModule</title>
<path fill="none" stroke="black" d="M406.47,-122.11C406.47,-122.11 406.47,-140.99 406.47,-140.99"/>
<polygon fill="black" stroke="black" points="402.97,-140.99 406.47,-150.99 409.97,-140.99 402.97,-140.99"/>
</g>
<!-- NewsComponent -->
<g id="node5" class="node">
<title>NewsComponent</title>
<polygon fill="#ffffb3" stroke="black" points="281.7,-122 168.3,-122 168.3,-86 281.7,-86 281.7,-122"/>
<text text-anchor="middle" x="225" y="-99.8" font-family="Times,serif" font-size="14.00">NewsComponent</text>
</g>
<!-- NewsComponent&#45;&gt;AppModule -->
<g id="edge5" class="edge">
<title>NewsComponent&#45;&gt;AppModule</title>
<path fill="none" stroke="black" d="M225,-122.02C225,-139.37 225,-163 225,-163 225,-163 388.29,-163 388.29,-163"/>
<polygon fill="black" stroke="black" points="388.29,-166.5 398.29,-163 388.29,-159.5 388.29,-166.5"/>
</g>
<!-- ReservaComponent -->
<g id="node6" class="node">
<title>ReservaComponent</title>
<polygon fill="#ffffb3" stroke="black" points="150.42,-122 23.58,-122 23.58,-86 150.42,-86 150.42,-122"/>
<text text-anchor="middle" x="87" y="-99.8" font-family="Times,serif" font-size="14.00">ReservaComponent</text>
</g>
<!-- ReservaComponent&#45;&gt;AppModule -->
<g id="edge6" class="edge">
<title>ReservaComponent&#45;&gt;AppModule</title>
<path fill="none" stroke="black" d="M87,-122.28C87,-143.32 87,-175 87,-175 87,-175 388.12,-175 388.12,-175"/>
<polygon fill="black" stroke="black" points="388.12,-178.5 398.12,-175 388.12,-171.5 388.12,-178.5"/>
</g>
<!-- AppComponent  -->
<g id="node8" class="node">
<title>AppComponent </title>
<polygon fill="#80b1d3" stroke="black" points="494.44,-252 385.56,-252 385.56,-216 494.44,-216 494.44,-252"/>
<text text-anchor="middle" x="440" y="-229.8" font-family="Times,serif" font-size="14.00">AppComponent </text>
</g>
<!-- AppModule&#45;&gt;AppComponent  -->
<g id="edge7" class="edge">
<title>AppModule&#45;&gt;AppComponent </title>
<path fill="none" stroke="black" stroke-dasharray="1,5" d="M440,-187.11C440,-187.11 440,-205.99 440,-205.99"/>
<polygon fill="black" stroke="black" points="436.5,-205.99 440,-215.99 443.5,-205.99 436.5,-205.99"/>
</g>
</g>
</svg>
